# xmcd CD database file
# Copyright (C) 1996 Ti Kan
#
# Track frame offsets:
#	200
#	55625
#	114422
#	202405
# Disc length: 3828 seconds
#
# Revision: 1
# Processed by: cddbd v1.4PL0 Copyright (c) Steve Scherf et al.
# Submitted via: CDCOPY 4.900
#
DISCID=340ef204
DTITLE=Dizzy Gillespie - Live!  At Blues Alleys
DYEAR=1900
DGENRE=
TTITLE0=Birks Works
TTITLE1=Brother K
TTITLE2=You Can't Lose with the Blues
TTITLE3=Manteca
EXTD=
EXTT0=
EXTT1=
EXTT2=
EXTT3=
PLAYORDER=
